<svg width="32" height="32" viewBox="0 0 32 32" xmlns="http://www.w3.org/2000/svg">
  <defs>
    <linearGradient id="logo-degrade" x1="0" y1="0" x2="32" y2="32" gradientUnits="userSpaceOnUse">
      <stop offset="0%" stop-color="#3B82F6" />
      <stop offset="55%" stop-color="#E9439A" />
      <stop offset="100%" stop-color="#FACC15" />
    </linearGradient>
  </defs>
  <rect width="32" height="32" rx="9" fill="url(#logo-degrade)" />
  <g transform="translate(6,7) scale(0.83)">
    <path
      d="M12 2C9.5 2 8 3.5 6.5 3.5C5.2 3.5 4 4.7 4 6.5C4 8.8 4.8 10.3 5.3 12.5C5.8 14.8 6 17.5 7.5 18.5C9 19.5 9.8 17 10.5 14.8C10.9 13.5 11.4 13 12 13C12.6 13 13.1 13.5 13.5 14.8C14.2 17 15 19.5 16.5 18.5C18 17.5 18.2 14.8 18.7 12.5C19.2 10.3 20 8.8 20 6.5C20 4.7 18.8 3.5 17.5 3.5C16 3.5 14.5 2 12 2Z"
      fill="white"
    />
  </g>
</svg>
